<?xml version="1.0" encoding="UTF-8" standalone="no"?>
<!-- Created with Inkscape (http://www.inkscape.org/) -->

<svg
   width="16.282591mm"
   height="16.274666mm"
   viewBox="0 0 16.282591 16.274666"
   version="1.1"
   id="svg812"
   xmlns="http://www.w3.org/2000/svg"
   xmlns:svg="http://www.w3.org/2000/svg">
  <defs
     id="defs809" />
  <g
     id="layer1"
     transform="translate(-26.156929,-69.127896)">
    <path
       style="display:inline;fill:none;fill-opacity:1;fill-rule:evenodd;stroke:#000000;stroke-width:0.370417;stroke-miterlimit:4;stroke-dasharray:none;stroke-opacity:1"
       d="m 34.299308,69.313104 c 1.075786,0 2.103763,0.212902 3.042629,0.600501 0.972937,0.404294 1.848842,0.993854 2.582685,1.728444 0.731623,0.731062 1.323408,1.607521 1.726213,2.581161 0.388347,0.938958 0.603475,1.963967 0.603475,3.042018 0,1.077121 -0.215128,2.102876 -0.603475,3.04109 -0.402805,0.972156 -0.99459,1.851028 -1.726213,2.581905 -0.733843,0.734589 -1.609748,1.324335 -2.582685,1.728441 -0.938866,0.387601 -1.966843,0.600689 -3.042629,0.600689 -1.077962,0 -2.105932,-0.213088 -3.041888,-0.600689 -0.975831,-0.404106 -1.850935,-0.993852 -2.584781,-1.728441 -0.731694,-0.730877 -1.324281,-1.609749 -1.727049,-2.581905 -0.387582,-0.938214 -0.603453,-1.963969 -0.603453,-3.04109 0,-1.078051 0.215871,-2.10306 0.603453,-3.042018 0.402768,-0.97364 0.995355,-1.850099 1.727049,-2.581161 0.733846,-0.73459 1.60895,-1.32415 2.584781,-1.728444 0.935956,-0.387599 1.963926,-0.600501 3.041888,-0.600501 z"
       id="path2441" />
    <path
       style="display:inline;fill:none;fill-opacity:1;fill-rule:evenodd;stroke:#000000;stroke-width:0.529167;stroke-miterlimit:4;stroke-dasharray:none"
       d="m 31.943121,74.424122 c -3.292549,-1.78371 0.400603,-4.56034 1.140973,-1.47066 0.08253,0.343278 0.322379,0.641863 0.649097,0.582512 0.394092,-0.07028 0.768615,-0.172469 1.156197,-0.265197 0.234715,-0.05731 0.576657,-0.01296 0.740373,0.04414 0.472319,0.170989 0.71864,0.261493 1.188789,0.438229 0.415825,0.155784 0.575204,0.318799 0.744654,0.63259 0.248507,0.451953 0.441939,0.776496 0.618678,1.589346 0.176183,0.809885 -0.557848,0.932283 -0.973579,0.37592 -0.223843,-0.304149 -0.378886,-0.6541 -0.539713,-0.996079 -0.109416,-0.229592 -0.599094,-0.326033 -0.849757,-0.412824 -0.326713,-0.113869 -0.36366,-0.06899 -0.178218,0.223842 0.341918,0.541716 0.675163,1.092333 1.049692,1.615501 0.768656,1.07564 0.862123,2.105099 1.528648,2.939646 0.548392,0.687483 0.986618,0.941745 1.487165,1.544471 0.422284,0.512225 -0.188976,1.30987 -0.92505,0.92375 -0.736811,-0.385373 -1.252561,-0.947674 -2.003819,-1.593058 -0.341942,-0.294873 -0.555643,-0.95843 -0.755599,-1.598807 -0.108681,-0.346244 -0.189794,-0.339013 -0.281081,0.0021 -0.09996,0.370911 -0.391924,1.214917 -0.115167,1.513499 0.594047,0.641861 1.095353,0.880912 1.626367,1.413354 0.457761,0.455663 -0.289774,1.329338 -0.95118,0.948973 -0.744728,-0.431739 -1.41773,-0.977347 -2.116801,-1.481415 -0.413655,-0.294873 -0.616493,-0.75851 -0.605624,-1.424294 0.01299,-0.821567 0.128895,-1.669099 -0.07177,-2.463029 -0.09774,-0.397062 -0.244136,-0.554326 -0.530995,-0.953426 -0.104971,-0.1441 -0.137612,-0.175995 -0.333245,-0.122399 -1.00624,0.26724 -1.226474,0.462151 -1.816161,0.402805 -0.453493,-0.04488 -1.293828,-0.841777 -1.890771,-1.450441 -0.533183,-0.543197 0.246301,-1.379971 0.769342,-0.967705 0.435393,0.34476 0.685329,0.533923 1.11056,0.867743 0.119621,0.09644 0.178223,0.07975 0.28254,0.04062 0.603452,-0.224586 0.627359,-0.129632 0.906262,-0.706212 0.03468,-0.06899 0.0074,-0.1543 -0.06083,-0.193429 v 0"
       id="path78" />
  </g>
</svg>
